<?xml version="1.0" encoding="utf-8"?>
<!-- Generator: Adobe Illustrator 24.2.3, SVG Export Plug-In . SVG Version: 6.00 Build 0)  -->
<svg version="1.1" id="Layer_1" xmlns="http://www.w3.org/2000/svg" xmlns:xlink="http://www.w3.org/1999/xlink" x="0px" y="0px"
	 viewBox="0 0 511.8 511.8" style="enable-background:new 0 0 511.8 511.8;" xml:space="preserve">
<style type="text/css">
	.st0{fill:#B3CD4B;}
	.st1{fill:#FFFFFF;}
</style>
<g>
	<g transform="translate(0 1)">
		<g>
			<path class="st0" d="M213.9,184.9H69.3c1.9-20.7,22.2-57.9,72.8-57.9C190.3,127.1,212,164.2,213.9,184.9"/>
			<path class="st0" d="M30.7,310.3L30.7,310.3c-10.6,0-19.3-8.7-19.3-19.3v-67.5c0-10.6,8.7-19.3,19.3-19.3S50,212.9,50,223.5V291
				C50,301.6,41.3,310.3,30.7,310.3"/>
			<path class="st0" d="M252.5,310.3L252.5,310.3c-10.6,0-19.3-8.7-19.3-19.3v-67.5c0-10.6,8.7-19.3,19.3-19.3s19.3,8.7,19.3,19.3
				V291C271.8,301.6,263.1,310.3,252.5,310.3"/>
			<path class="st0" d="M194.6,334.4v48.2c0,8.2-6.3,14.5-14.5,14.5s-14.5-6.3-14.5-14.5v-48.2h-48.2v48.2c0,8.2-6.7,14.5-14.5,14.5
				s-14.5-6.3-14.5-14.5v-48.2H69.3V204.2h144.6v130.2H194.6z"/>
		</g>
		<g>
			<path class="st1" d="M127.2,160.8c0-5.3-4.3-9.6-9.6-9.6c-5.3,0-9.6,4.3-9.6,9.6s4.3,9.6,9.6,9.6
				C122.8,170.5,127.2,166.1,127.2,160.8"/>
			<path class="st1" d="M175.4,160.8c0-5.3-4.3-9.6-9.6-9.6s-9.6,4.3-9.6,9.6s4.3,9.6,9.6,9.6C171,170.5,175.4,166.1,175.4,160.8"/>
		</g>
		<g>
			<path class="st0" d="M102.6,141.5c-1.9,0-3.4-1-4.3-2.9l-9.2-19.3c-1-2.4,0-5.3,2.4-6.3c2.4-1,5.3,0,6.3,2.4l9.2,19.3
				c1,2.4,0,5.3-2.4,6.3C104,141.1,103.5,141.5,102.6,141.5z"/>
			<path class="st0" d="M180.2,141.5c-0.5,0-1.4,0-1.9-0.5c-2.4-1-3.4-3.9-2.4-6.3l9.2-19.3c1-2.4,3.9-3.4,6.3-2.4
				c2.4,1,3.4,3.9,2.4,6.3l-9.2,19.3C184,140.6,182.1,141.5,180.2,141.5z"/>
		</g>
	</g>
	<g>
		<g>
			<path d="M442.7,121.9c0.6,0,1.2,0,1.9,0c1.5,18.9-5.7,33-14.4,43.2c-8.6,10.2-20.4,20-39.4,18.5c-1.3-18.6,6-31.7,14.7-41.9
				C413.5,132.3,428.4,123.8,442.7,121.9z"/>
			<path d="M500.4,318.6c0,0.2,0,0.4,0,0.5c-5.4,16.2-13,30.1-22.3,43c-8.5,11.7-18.9,27.5-37.5,27.5c-16.1,0-26.8-10.3-43.2-10.6
				c-17.4-0.3-27,8.6-43,10.9c-1.8,0-3.6,0-5.4,0c-11.7-1.7-21.2-11-28-19.3c-20.3-24.7-36-56.6-38.9-97.4c0-4,0-8,0-12
				c1.2-29.2,15.4-52.9,34.3-64.5c10-6.1,23.6-11.3,38.9-9c6.5,1,13.2,3.2,19,5.5c5.5,2.1,12.5,5.9,19,5.7c4.4-0.1,8.9-2.4,13.4-4.1
				c13.1-4.7,26-10.2,43-7.6c20.4,3.1,34.9,12.1,43.8,26.1c-17.2,11-30.9,27.5-28.6,55.8C466.8,294.7,481.7,309.8,500.4,318.6z"/>
		</g>
	</g>
</g>
</svg>
