<?xml version="1.0" encoding="utf-8"?>
<!-- Generator: Adobe Illustrator 24.2.3, SVG Export Plug-In . SVG Version: 6.00 Build 0)  -->
<svg version="1.1" id="Layer_1" xmlns="http://www.w3.org/2000/svg" xmlns:xlink="http://www.w3.org/1999/xlink" x="0px" y="0px"
	 viewBox="0 0 200 200" style="enable-background:new 0 0 200 200;" xml:space="preserve">
<style type="text/css">
	.st0{fill:#B4B4B5;stroke:#B4B4B5;stroke-width:4.6967;stroke-linecap:square;stroke-miterlimit:10;}
	.st1{fill:#B4B4B5;stroke:#B4B4B5;stroke-width:3.2786;stroke-linecap:square;stroke-miterlimit:10;}
	.st2{fill:#B4B4B5;stroke:#B4B4B5;stroke-width:2.4259;stroke-linecap:square;stroke-miterlimit:10;}
	.st3{fill:#B4B4B5;stroke:#B4B4B5;stroke-width:1.9032;stroke-linecap:square;stroke-miterlimit:10;}
	.st4{fill:#FFFFFF;stroke:#B4B4B5;stroke-width:7.4478;stroke-linecap:square;stroke-miterlimit:10;}
	.st5{fill:none;stroke:#B4B4B5;stroke-width:8.5361;stroke-linecap:square;stroke-miterlimit:10;}
</style>
<g>
	<g>
		<rect x="17.9" y="18.8" class="st1" width="30.3" height="30.3"/>
		<rect x="17.9" y="62.9" class="st1" width="30.3" height="30.3"/>
		<rect x="17.9" y="106.9" class="st1" width="30.3" height="30.3"/>
		<rect x="17.9" y="150.9" class="st1" width="30.3" height="30.3"/>
	</g>
	<g>
		<rect x="62.5" y="18.8" class="st1" width="30.3" height="30.3"/>
		<rect x="62.5" y="62.9" class="st1" width="30.3" height="30.3"/>
		<rect x="62.5" y="106.9" class="st1" width="30.3" height="30.3"/>
		<rect x="62.5" y="150.9" class="st1" width="30.3" height="30.3"/>
	</g>
	<g>
		<rect x="107.2" y="18.8" class="st1" width="30.3" height="30.3"/>
		<rect x="107.2" y="62.9" class="st1" width="30.3" height="30.3"/>
		<rect x="107.2" y="106.9" class="st1" width="30.3" height="30.3"/>
		<rect x="107.2" y="150.9" class="st1" width="30.3" height="30.3"/>
	</g>
	<g>
		<rect x="151.9" y="18.8" class="st1" width="30.3" height="30.3"/>
		<rect x="151.9" y="62.9" class="st1" width="30.3" height="30.3"/>
		<rect x="151.9" y="106.9" class="st1" width="30.3" height="30.3"/>
		<rect x="151.9" y="150.9" class="st1" width="30.3" height="30.3"/>
	</g>
</g>
</svg>
