<?xml version="1.0" encoding="utf-8"?>
<!-- Generator: Adobe Illustrator 24.2.3, SVG Export Plug-In . SVG Version: 6.00 Build 0)  -->
<svg version="1.1" id="Layer_1" xmlns="http://www.w3.org/2000/svg" xmlns:xlink="http://www.w3.org/1999/xlink" x="0px" y="0px"
	 viewBox="0 0 200 200" style="enable-background:new 0 0 200 200;" xml:space="preserve">
<style type="text/css">
	.st0{fill:#B4B4B5;stroke:#B4B4B5;stroke-width:4.6967;stroke-linecap:square;stroke-miterlimit:10;}
	.st1{fill:#B4B4B5;stroke:#B4B4B5;stroke-width:3.2786;stroke-linecap:square;stroke-miterlimit:10;}
	.st2{fill:#B4B4B5;stroke:#B4B4B5;stroke-width:2.4259;stroke-linecap:square;stroke-miterlimit:10;}
	.st3{fill:#B4B4B5;stroke:#B4B4B5;stroke-width:1.9032;stroke-linecap:square;stroke-miterlimit:10;}
	.st4{fill:#FFFFFF;stroke:#B4B4B5;stroke-width:7.4478;stroke-linecap:square;stroke-miterlimit:10;}
	.st5{fill:none;stroke:#B4B4B5;stroke-width:8.5361;stroke-linecap:square;stroke-miterlimit:10;}
</style>
<g>
	<g>
		<rect x="17" y="18.6" class="st2" width="22.4" height="22.4"/>
		<rect x="17" y="53.7" class="st2" width="22.4" height="22.4"/>
		<rect x="17" y="88.8" class="st2" width="22.4" height="22.4"/>
		<rect x="17" y="123.9" class="st2" width="22.4" height="22.4"/>
		<rect x="17" y="159" class="st2" width="22.4" height="22.4"/>
	</g>
	<g>
		<rect x="161" y="18.6" class="st2" width="22.4" height="22.4"/>
		<rect x="161" y="53.7" class="st2" width="22.4" height="22.4"/>
		<rect x="161" y="88.8" class="st2" width="22.4" height="22.4"/>
		<rect x="161" y="123.9" class="st2" width="22.4" height="22.4"/>
		<rect x="161" y="159" class="st2" width="22.4" height="22.4"/>
	</g>
	<g>
		<rect x="125" y="18.6" class="st2" width="22.4" height="22.4"/>
		<rect x="125" y="53.7" class="st2" width="22.4" height="22.4"/>
		<rect x="125" y="88.8" class="st2" width="22.4" height="22.4"/>
		<rect x="125" y="123.9" class="st2" width="22.4" height="22.4"/>
		<rect x="125" y="159" class="st2" width="22.4" height="22.4"/>
	</g>
	<g>
		<rect x="89" y="18.6" class="st2" width="22.4" height="22.4"/>
		<rect x="89" y="53.7" class="st2" width="22.4" height="22.4"/>
		<rect x="89" y="88.8" class="st2" width="22.4" height="22.4"/>
		<rect x="89" y="123.9" class="st2" width="22.4" height="22.4"/>
		<rect x="89" y="159" class="st2" width="22.4" height="22.4"/>
	</g>
	<g>
		<rect x="53" y="18.6" class="st2" width="22.4" height="22.4"/>
		<rect x="53" y="53.7" class="st2" width="22.4" height="22.4"/>
		<rect x="53" y="88.8" class="st2" width="22.4" height="22.4"/>
		<rect x="53" y="123.9" class="st2" width="22.4" height="22.4"/>
		<rect x="53" y="159" class="st2" width="22.4" height="22.4"/>
	</g>
</g>
</svg>
