<?xml version="1.0" encoding="utf-8"?>
<!-- Generator: Adobe Illustrator 24.2.3, SVG Export Plug-In . SVG Version: 6.00 Build 0)  -->
<svg version="1.1" id="Layer_1" xmlns="http://www.w3.org/2000/svg" xmlns:xlink="http://www.w3.org/1999/xlink" x="0px" y="0px"
	 viewBox="0 0 200 200" style="enable-background:new 0 0 200 200;" xml:space="preserve">
<style type="text/css">
	.st0{fill:#B4B4B5;stroke:#B4B4B5;stroke-width:4.6967;stroke-linecap:square;stroke-miterlimit:10;}
	.st1{fill:#B4B4B5;stroke:#B4B4B5;stroke-width:3.2786;stroke-linecap:square;stroke-miterlimit:10;}
	.st2{fill:#B4B4B5;stroke:#B4B4B5;stroke-width:2.4259;stroke-linecap:square;stroke-miterlimit:10;}
	.st3{fill:#B4B4B5;stroke:#B4B4B5;stroke-width:1.9032;stroke-linecap:square;stroke-miterlimit:10;}
	.st4{fill:#FFFFFF;stroke:#B4B4B5;stroke-width:7.4478;stroke-linecap:square;stroke-miterlimit:10;}
	.st5{fill:none;stroke:#B4B4B5;stroke-width:8.5361;stroke-linecap:square;stroke-miterlimit:10;}
</style>
<g>
	<g>
		<rect x="17.4" y="18.3" class="st3" width="17.6" height="17.6"/>
		<rect x="17.4" y="47.5" class="st3" width="17.6" height="17.6"/>
		<rect x="17.4" y="76.6" class="st3" width="17.6" height="17.6"/>
		<rect x="17.4" y="105.8" class="st3" width="17.6" height="17.6"/>
		<rect x="17.4" y="134.9" class="st3" width="17.6" height="17.6"/>
		<rect x="17.4" y="164.1" class="st3" width="17.6" height="17.6"/>
	</g>
	<g>
		<rect x="46.9" y="18.3" class="st3" width="17.6" height="17.6"/>
		<rect x="46.9" y="47.5" class="st3" width="17.6" height="17.6"/>
		<rect x="46.9" y="76.6" class="st3" width="17.6" height="17.6"/>
		<rect x="46.9" y="105.8" class="st3" width="17.6" height="17.6"/>
		<rect x="46.9" y="134.9" class="st3" width="17.6" height="17.6"/>
		<rect x="46.9" y="164.1" class="st3" width="17.6" height="17.6"/>
	</g>
	<g>
		<rect x="76.4" y="18.3" class="st3" width="17.6" height="17.6"/>
		<rect x="76.4" y="47.5" class="st3" width="17.6" height="17.6"/>
		<rect x="76.4" y="76.6" class="st3" width="17.6" height="17.6"/>
		<rect x="76.4" y="105.8" class="st3" width="17.6" height="17.6"/>
		<rect x="76.4" y="134.9" class="st3" width="17.6" height="17.6"/>
		<rect x="76.4" y="164.1" class="st3" width="17.6" height="17.6"/>
	</g>
	<g>
		<rect x="106" y="18.3" class="st3" width="17.6" height="17.6"/>
		<rect x="106" y="47.5" class="st3" width="17.6" height="17.6"/>
		<rect x="106" y="76.6" class="st3" width="17.6" height="17.6"/>
		<rect x="106" y="105.8" class="st3" width="17.6" height="17.6"/>
		<rect x="106" y="134.9" class="st3" width="17.6" height="17.6"/>
		<rect x="106" y="164.1" class="st3" width="17.6" height="17.6"/>
	</g>
	<g>
		<rect x="135.5" y="18.3" class="st3" width="17.6" height="17.6"/>
		<rect x="135.5" y="47.5" class="st3" width="17.6" height="17.6"/>
		<rect x="135.5" y="76.6" class="st3" width="17.6" height="17.6"/>
		<rect x="135.5" y="105.8" class="st3" width="17.6" height="17.6"/>
		<rect x="135.5" y="134.9" class="st3" width="17.6" height="17.6"/>
		<rect x="135.5" y="164.1" class="st3" width="17.6" height="17.6"/>
	</g>
	<g>
		<rect x="165.1" y="18.3" class="st3" width="17.6" height="17.6"/>
		<rect x="165.1" y="47.5" class="st3" width="17.6" height="17.6"/>
		<rect x="165.1" y="76.6" class="st3" width="17.6" height="17.6"/>
		<rect x="165.1" y="105.8" class="st3" width="17.6" height="17.6"/>
		<rect x="165.1" y="134.9" class="st3" width="17.6" height="17.6"/>
		<rect x="165.1" y="164.1" class="st3" width="17.6" height="17.6"/>
	</g>
</g>
</svg>
