<?xml version="1.0" encoding="utf-8"?>
<!-- Generator: Adobe Illustrator 18.0.0, SVG Export Plug-In . SVG Version: 6.00 Build 0)  -->
<!DOCTYPE svg PUBLIC "-//W3C//DTD SVG 1.1//EN" "http://www.w3.org/Graphics/SVG/1.1/DTD/svg11.dtd">
<svg version="1.1" id="Capa_1" xmlns="http://www.w3.org/2000/svg" xmlns:xlink="http://www.w3.org/1999/xlink" x="0px" y="0px"
	 viewBox="-72 -18 288 288" enable-background="new -72 -18 288 288" xml:space="preserve">
<g>
	<g>
		<path fill="#1C6296" d="M10.3,175.9h8.9h151.6c3.7,0,6.8-2.3,8-5.8l32.6-109.7c0.8-2.5,0.2-5.2-1.4-7.4c-1.6-2.1-4.1-3.3-6.6-3.3
			H-7.2l-11.1-37.5c-1-3.5-4.3-5.8-8-5.8h-33.2c-4.7,0-8.3,3.7-8.3,8.3c0,4.3,3.7,8.2,8.3,8.2h27l11.1,37.3c0,0.2,0,0.2,0.2,0.4
			l29.5,99c-16.9,1.2-30.1,15.1-30.1,32.2c0,17.9,14.6,32.4,32.4,32.4h8.2c3.7,12.2,15,21.4,28.5,21.4c13.4,0,24.9-9.1,28.5-21.4
			h43.9c3.7,12.2,14.9,21.4,28.5,21.4c13.4,0,24.9-9.1,28.5-21.4h10.7c4.7,0,8.3-3.7,8.3-8.3c0-4.7-3.7-8.3-8.3-8.3h-10.7
			c-3.7-12.2-14.9-21.4-28.5-21.4c-13.4,0-24.9,9.1-28.5,21.4H75.5c-3.7-12.2-14.9-21.4-28.5-21.4s-24.9,9.1-28.5,21.4h-8.2
			c-8.7,0-15.7-7-15.7-15.7C-5.4,182.9,1.5,175.9,10.3,175.9z M131.8,66.2h60.6l-11.5,38.2h-49.1V66.2z M131.8,121h44.3l-11.5,38.2
			h-32.8V121z M70.5,66.2h44.7v38.2H70.5V66.2z M70.5,121h44.7v38.2H70.5C70.5,159.4,70.5,121,70.5,121z M54,159.4L54,159.4H25.4
			L14,121.1h40C54,121.1,54,159.4,54,159.4z M-2.3,66.2H54v38.2H9.1L-2.3,66.2z M147.9,202.7c7.2,0,13,5.8,13,13s-5.8,13-13,13
			s-13-5.8-13-13S140.6,202.7,147.9,202.7z M47,202.7c7.2,0,13,5.8,13,13s-5.8,13-13,13s-13-5.8-13-13S39.8,202.7,47,202.7z"/>
	</g>
</g>
</svg>
