<svg id="Capa_1" enable-background="new 0 0 512 512" height="512" viewBox="0 0 512 512" width="512" xmlns="http://www.w3.org/2000/svg"><g><g><g><path d="m234.923 0-167.281 207.268h61.639l62.845 304.732h42.797l52.011-304.732z" fill="#fde01d"/><path d="m234.923 0v512h105.897v-304.732h63.129z" fill="#fcbe2c"/><path d="m129.098 207.268-99.563 123.362h36.687v181.37h62.876l31.053-162.69z" fill="#7d89e5"/><path d="m129.098 207.268v304.732h63.028v-181.37h37.572z" fill="#6260d0"/></g></g><g><g><path d="m377.663 512c-57.861 0-104.935-47.074-104.935-104.936s47.074-104.936 104.935-104.936c57.787 0 104.802 47.074 104.802 104.936s-47.015 104.936-104.802 104.936z" fill="#5cd4ab"/></g><g><path d="m377.663 302.128c-.022 0-.045.001-.067.001v209.87c.022 0 .045.001.067.001 57.787 0 104.802-47.074 104.802-104.936s-47.015-104.936-104.802-104.936z" fill="#32bea6"/></g><g><path d="m379.103 397.212-13.062 13.063-18.618-18.618-21.126 21.126 39.744 39.745 13.062-13.062z" fill="#e7ffff"/></g><g><path d="m409.28 367.035-31.684 31.685v42.253l52.81-52.811z" fill="#daf2fe"/></g></g></g></svg>