<svg height="512" viewBox="0 0 64 64" width="512" xmlns="http://www.w3.org/2000/svg"><g id="_12_Fast_Delivery" data-name="12 Fast Delivery"><path d="m56 29h-15a1 1 0 0 0 -1 1v13a1 1 0 0 0 1 1h17a1 1 0 0 0 1-1v-11a3.0033 3.0033 0 0 0 -3-3z" fill="#26a6fe"/><path d="m56.9487 29.6836-3.5439-10.6323a2.9967 2.9967 0 0 0 -2.8462-2.0513h-9.5586a1 1 0 0 0 -1 1v12a1 1 0 0 0 1 1h15a1.007 1.007 0 0 0 .9487-1.3164z" fill="#26a6fe"/><path d="m52.9487 26.6836-2-6a1 1 0 0 0 -.9487-.6836h-6a1 1 0 0 0 -1 1v6a1 1 0 0 0 1 1h8a1.0071 1.0071 0 0 0 .9487-1.3164z" fill="#eee"/><path d="m55.5 34c-3.2421-.0453-3.2436 5.0449 0 5h3.5v-5z" fill="#ffd54f"/><path d="m39 14h-31a3.0033 3.0033 0 0 0 -3 3v21h37v-21a3.0033 3.0033 0 0 0 -3-3z" fill="#ffd54f"/><path d="m31.0007 19.0005c-9.3028-.0646-9.3652 14.1149-.0007 13.9995 9.3646.1166 9.302-14.0629.0007-13.9995z" fill="#ffa000"/><path d="m40 36h-35v7a1 1 0 0 0 1 1h35a1 1 0 0 0 1-1v-7z" fill="#26a6fe"/><path d="m59.5 42h-55c-3.2421-.0453-3.2436 5.0449 0 5h55c3.2421.0453 3.2436-5.0449 0-5z" fill="#67676b"/><path d="m50.5005 39.0007c-7.3338-.1-7.3338 11.0975 0 10.9986 7.3329.0998 7.3328-11.0975 0-10.9986z" fill="#46464e"/><path d="m13.5005 39.0007c-7.3338-.1-7.3338 11.0975 0 10.9986 7.3329.0998 7.3328-11.0975 0-10.9986z" fill="#46464e"/><g fill="#eee"><path d="m13.5 42c-3.3408-.0469-3.3263 5.0492 0 4.9992 3.3406.0473 3.326-5.0492 0-4.9992z"/><path d="m50.5 42c-3.3408-.0469-3.3263 5.0492 0 4.9992 3.3406.0473 3.326-5.0492 0-4.9992z"/><path d="m32 28a.9967.9967 0 0 1 -.707-.293l-1-1a1 1 0 0 1 -.293-.707v-3a1 1 0 0 1 2 0v2.5859l.707.7071a1.0066 1.0066 0 0 1 -.707 1.707z"/></g><g fill="#ffa000"><path d="m14 33h-11a1 1 0 0 1 0-2h11a1 1 0 0 1 0 2z"/><path d="m18 29h-13a1 1 0 0 1 0-2h13a1 1 0 0 1 0 2z"/><path d="m14 21h-11a1 1 0 0 1 0-2h11a1 1 0 0 1 0 2z"/><path d="m18 25h-13a1 1 0 0 1 0-2h13a1 1 0 0 1 0 2z"/></g></g></svg>