<?xml version="1.0" encoding="iso-8859-1"?>
<!-- Generator: Adobe Illustrator 19.0.0, SVG Export Plug-In . SVG Version: 6.00 Build 0)  -->
<svg version="1.1" id="Capa_1" xmlns="http://www.w3.org/2000/svg" xmlns:xlink="http://www.w3.org/1999/xlink" x="0px" y="0px"
	 viewBox="0 0 512 512" style="enable-background:new 0 0 512 512;" xml:space="preserve">
<rect x="208.6" y="423" style="fill:#4B596E;" width="94.81" height="68.37"/>
<rect x="272.95" y="423" style="fill:#36465C;" width="30.453" height="68.37"/>
<path style="fill:#4B596E;" d="M311.15,70.15c-4.142,0-7.5-3.358-7.5-7.5C303.65,36.375,282.274,15,256,15
	s-47.65,21.375-47.65,47.65c0,4.142-3.358,7.5-7.5,7.5s-7.5-3.358-7.5-7.5C193.35,28.104,221.455,0,256,0s62.65,28.104,62.65,62.65
	C318.65,66.792,315.292,70.15,311.15,70.15z"/>
<path style="fill:#36C8E3;" d="M504,432.823H8c-2.209,0-4-1.791-4-4V97.783c0-2.209,1.791-4,4-4h496c2.209,0,4,1.791,4,4v331.04
	C508,431.032,506.209,432.823,504,432.823z"/>
<path style="fill:#008FBF;" d="M477.577,93.783v339.04H504c2.209,0,4-1.791,4-4V97.783c0-2.209-1.791-4-4-4H477.577z"/>
<path style="fill:#F8D77E;" d="M34.423,398.37V128.235c0-2.209,1.791-4,4-4h435.155c2.209,0,4,1.791,4,4V398.37c0,2.209-1.791,4-4,4
	H38.423C36.213,402.37,34.423,400.579,34.423,398.37z"/>
<path style="fill:#36C8E3;" d="M369.282,512H142.718c-8.409,0-15.226-6.817-15.226-15.226l0,0c0-8.409,6.817-15.226,15.226-15.226
	h226.564c8.409,0,15.226,6.817,15.226,15.226l0,0C384.508,505.183,377.691,512,369.282,512z"/>
<path style="fill:#008FBF;" d="M369.282,481.547h-30.453c8.409,0,15.226,6.817,15.226,15.226c0,8.409-6.817,15.226-15.226,15.226
	h30.453c8.409,0,15.226-6.817,15.226-15.226C384.508,488.364,377.691,481.547,369.282,481.547z"/>
<path style="fill:#FF5948;" d="M366.415,308.305h-220.83c-2.26,0-4.071-1.871-3.998-4.13l7.703-237.652
	c0.07-2.158,1.839-3.87,3.998-3.87h205.424c2.159,0,3.928,1.713,3.998,3.87l7.703,237.652
	C370.486,306.434,368.675,308.305,366.415,308.305z"/>
<path style="fill:#DE4A3C;" d="M358.712,62.653h-26.58l7.962,245.652h26.321c2.26,0,4.071-1.871,3.998-4.13L362.71,66.524
	C362.64,64.366,360.871,62.653,358.712,62.653z"/>
<g>
	<path style="fill:#F8D77E;" d="M225.547,177.753c-12.531,0-22.727-10.195-22.727-22.727s10.195-22.726,22.727-22.726
		s22.726,10.195,22.726,22.726S238.079,177.753,225.547,177.753z M225.547,147.3c-4.26,0-7.727,3.466-7.727,7.726
		s3.466,7.727,7.727,7.727s7.726-3.466,7.726-7.727S229.808,147.3,225.547,147.3z"/>
	<path style="fill:#F8D77E;" d="M286.453,238.658c-12.531,0-22.726-10.195-22.726-22.726s10.195-22.727,22.726-22.727
		s22.727,10.195,22.727,22.727S298.984,238.658,286.453,238.658z M286.453,208.206c-4.26,0-7.726,3.466-7.726,7.727
		s3.466,7.726,7.726,7.726s7.727-3.466,7.727-7.726S290.713,208.206,286.453,208.206z"/>
	<path style="fill:#F8D77E;" d="M210.321,238.658c-1.919,0-3.839-0.732-5.303-2.197c-2.929-2.929-2.929-7.678,0-10.606
		l91.358-91.358c2.929-2.929,7.678-2.929,10.606,0c2.929,2.929,2.929,7.678,0,10.606l-91.358,91.358
		C214.16,237.926,212.24,238.658,210.321,238.658z"/>
</g>
<g>
	<path style="fill:#FF5948;" d="M428.565,348.068H83.435c-4.142,0-7.5-3.358-7.5-7.5s3.358-7.5,7.5-7.5h345.131
		c4.142,0,7.5,3.358,7.5,7.5S432.708,348.068,428.565,348.068z"/>
	<path style="fill:#FF5948;" d="M408.264,374.63H103.736c-4.142,0-7.5-3.358-7.5-7.5s3.358-7.5,7.5-7.5h304.527
		c4.142,0,7.5,3.358,7.5,7.5S412.406,374.63,408.264,374.63z"/>
</g>
<g>
</g>
<g>
</g>
<g>
</g>
<g>
</g>
<g>
</g>
<g>
</g>
<g>
</g>
<g>
</g>
<g>
</g>
<g>
</g>
<g>
</g>
<g>
</g>
<g>
</g>
<g>
</g>
<g>
</g>
</svg>
