<?xml version="1.0" encoding="utf-8"?>
<!-- Generator: Adobe Illustrator 24.2.3, SVG Export Plug-In . SVG Version: 6.00 Build 0)  -->
<svg version="1.1" id="Layer_1" xmlns="http://www.w3.org/2000/svg" xmlns:xlink="http://www.w3.org/1999/xlink" x="0px" y="0px"
	 viewBox="0 0 480 480" style="enable-background:new 0 0 480 480;" xml:space="preserve">
<style type="text/css">
	.st0{fill:#137BC2;}
</style>
<g>
	<path class="st0" d="M293.2,34l-6.3,24.2c82.8,21.4,140.7,96.1,140.7,181.7c0,74.1-43.3,139.9-108.6,170.2l19.8-39.5l-22.4-11.2
		l-37.5,75c-1.8,3.6-1.8,7.8,0.1,11.4c1.9,3.6,5.3,6,9.3,6.6l87.5,12.5l3.5-24.8l-50.2-7.2c74.2-34.3,123.5-109,123.5-193.1
		C452.6,143,387,58.3,293.2,34z"/>
	<path class="st0" d="M27.4,240c0,97,65.6,181.7,159.5,206l6.3-24.2C110.3,400.4,52.4,325.6,52.4,240c0-74.1,43.3-139.9,108.6-170.2
		l-19.8,39.5l22.4,11.2l37.5-75c1.8-3.6,1.8-7.8-0.1-11.4c-1.9-3.6-5.3-6-9.3-6.6L104.2,15l-3.5,24.8l50.2,7.2
		C76.6,81.2,27.4,155.9,27.4,240z"/>
</g>
<g>
	<g>
		<path class="st0" d="M179.6,205.9h168.7v7.2H179.6V205.9z"/>
		<path class="st0" d="M188.2,239.3h151.6v7.2H188.2V239.3z"/>
		<path class="st0" d="M314.6,279.9H274l-14.3,7.2h-63.9v-14.3h118.7c8.2,0,15.3-5.5,17.4-13.5l20.4-79.7H170.2v-7.2h186.7
			c1.1,0,2.2,0.5,2.8,1.4c0.7,0.9,0.9,2,0.6,3.1L338.8,261C336,272.1,326,279.9,314.6,279.9z"/>
		<path class="st0" d="M304.3,275.8l15.4-100.2l7.1,1.1l-15.4,100.2L304.3,275.8z"/>
		<path class="st0" d="M277.1,276.1l5.1-100.3l7.2,0.4l-5.1,100.3L277.1,276.1z"/>
		<path class="st0" d="M244.9,176.2l7.2-0.4l5.1,100.3l-7.2,0.4L244.9,176.2z"/>
		<path class="st0" d="M207.4,176.5l7.1-1.1L230,275.7l-7.1,1.1L207.4,176.5z"/>
	</g>
	<path class="st0" d="M335.4,322.9h-14.3v14.3h14.3c4,0,7.2-3.2,7.2-7.2S339.4,322.9,335.4,322.9z"/>
	<path class="st0" d="M245.4,294.2h14.3c7.9,0,14.3-6.4,14.3-14.3h-14.3L245.4,294.2z"/>
	<path class="st0" d="M321.1,322.9H176.8c-4,0-7.2-3.2-7.2-7.2c0-2.6,1.4-5,3.7-6.2l26.9-15.2h45.2c7.9,0,14.3-6.4,14.3-14.3h-55.8
		l-28.2-110.1c-1.6-6.4-4.9-12-9.4-16.5h-10.1v10.1c2.7,2.7,4.6,6,5.6,9.9L190,283.5L166.3,297c-6.7,3.8-10.9,11-10.9,18.7
		c0,11.9,9.6,21.5,21.5,21.5h144.2c4,0,7.2-3.2,7.2-7.2S325,322.9,321.1,322.9z"/>
	<path class="st0" d="M141,142.8h-14.3c-4,0-7.2,3.2-7.2,7.2c0,4,3.2,7.2,7.2,7.2H141c5.9,0,11.3,2.4,15.2,6.3l10.1-10.1
		C159.8,146.8,150.8,142.8,141,142.8z"/>
</g>
</svg>
