<svg id="Layer_1" height="512" viewBox="0 0 64 64" width="512" xmlns="http://www.w3.org/2000/svg" data-name="Layer 1"><circle cx="15" cy="15" fill="#ffca28" r="11"/><circle cx="15" cy="15" fill="#fff9c4" r="9"/><path d="m15.5 14h-1a.5.5 0 0 1 0-1h2.5a1 1 0 0 0 0-2h-1a1 1 0 0 0 -2 0v.05a2.5 2.5 0 0 0 .5 4.95h1a.5.5 0 0 1 0 1h-2.5a1 1 0 0 0 0 2h1a1 1 0 0 0 1 1 1 1 0 0 0 1-1 2.5 2.5 0 0 0 -.5-5z" fill="#ffca28"/><path d="m31.64 56.87c-20.77-7.59-22-31.39-22-36.53a1 1 0 0 1 1-1 33.92 33.92 0 0 0 20.69-7.76 1 1 0 0 1 1.29 0 33.89 33.89 0 0 0 20.69 7.76 1 1 0 0 1 1 1c0 5.14-1.19 28.94-22 36.53a1 1 0 0 1 -.67 0z" fill="#26a69a"/><path d="m31.59 52.55c-13.88-6-17-20.87-17.72-28.44a1 1 0 0 1 .87-1.11 38.17 38.17 0 0 0 16.68-6.46 1 1 0 0 1 1.15 0 38.26 38.26 0 0 0 16.71 6.46 1 1 0 0 1 .87 1.07c-.64 7.57-3.73 22.44-17.75 28.44a1 1 0 0 1 -.81.04z" fill="#e5f9f6"/><path d="m31 39a2 2 0 0 1 -1.41-.59l-4-4a2 2 0 1 1 2.83-2.82l2.58 2.58 6.59-6.58a2 2 0 0 1 2.83 2.82l-8 8a2 2 0 0 1 -1.42.59z" fill="#165b53"/><circle cx="49" cy="49" fill="#ffca28" r="11"/><circle cx="49" cy="49" fill="#fff9c4" r="9"/><path d="m49.5 48h-1a.5.5 0 0 1 0-1h2.5a1 1 0 0 0 0-2h-1a1 1 0 0 0 -2 0 2.5 2.5 0 0 0 .5 5h1a.5.5 0 0 1 0 1h-2.5a1 1 0 0 0 0 2h1a1 1 0 0 0 1 1 1 1 0 0 0 1-1 2.5 2.5 0 0 0 -.5-5z" fill="#ffca28"/></svg>