<?xml version="1.0" encoding="utf-8"?>
<!-- Generator: Adobe Illustrator 18.0.0, SVG Export Plug-In . SVG Version: 6.00 Build 0)  -->
<!DOCTYPE svg PUBLIC "-//W3C//DTD SVG 1.1//EN" "http://www.w3.org/Graphics/SVG/1.1/DTD/svg11.dtd">
<svg version="1.1" id="Layer_1" xmlns="http://www.w3.org/2000/svg" xmlns:xlink="http://www.w3.org/1999/xlink" x="0px" y="0px"
	 viewBox="0 54 144 144" enable-background="new 0 54 144 144" xml:space="preserve">
<g>
	<path fill="#1C6296" d="M71.2,123.7c8.3,0,15.5-3,21.4-8.9c5.9-5.9,8.9-13.1,8.9-21.4c0-8.3-3-15.5-8.9-21.4
		C86.8,66,79.5,63,71.2,63c-8.3,0-15.5,3-21.4,8.9c-5.9,5.9-8.9,13.1-8.9,21.4c0,8.3,3,15.5,8.9,21.4
		C55.7,120.7,62.9,123.7,71.2,123.7z M55,77.1c4.5-4.5,9.8-6.7,16.2-6.7c6.4,0,11.7,2.2,16.2,6.7c4.5,4.5,6.7,9.8,6.7,16.2
		c0,6.4-2.2,11.7-6.7,16.2c-4.5,4.5-9.8,6.7-16.2,6.7c-6.4,0-11.7-2.2-16.2-6.7c-4.5-4.5-6.7-9.8-6.7-16.2
		C48.3,87,50.5,81.7,55,77.1z"/>
	<path fill="#1C6296" d="M124.3,159.9c-0.2-2.5-0.5-5.1-1-8c-0.5-2.8-1.2-5.5-2-8c-0.8-2.5-1.9-5.1-3.3-7.5c-1.4-2.5-3.1-4.7-5-6.5
		c-2-1.9-4.4-3.4-7.1-4.5c-2.8-1.1-5.8-1.6-9.1-1.6c-1.3,0-2.5,0.5-4.9,2.1c-1.5,1-3.2,2.1-5.1,3.3c-1.6,1.1-3.9,2-6.6,2.9
		c-2.7,0.9-5.4,1.3-8.1,1.3c-2.7,0-5.4-0.4-8.1-1.3c-2.8-0.9-5-1.9-6.6-2.9c-1.9-1.2-3.6-2.3-5.1-3.3c-2.4-1.6-3.6-2.1-4.9-2.1
		c-3.3,0-6.3,0.6-9.1,1.6c-2.8,1.1-5.2,2.6-7.1,4.5c-1.9,1.8-3.5,4-5,6.5c-1.4,2.4-2.5,4.9-3.3,7.5c-0.8,2.5-1.4,5.2-2,8
		c-0.5,2.8-0.9,5.5-1,8c-0.2,2.4-0.3,4.9-0.3,7.4c0,6.6,2.1,11.9,6.2,15.8c4.1,3.9,9.5,5.8,16,5.8h60.6c6.5,0,11.9-2,16-5.8
		c4.1-3.9,6.2-9.2,6.2-15.8C124.5,164.8,124.4,162.3,124.3,159.9z M113.2,177.8c-2.7,2.6-6.3,3.8-10.9,3.8H41.7
		c-4.7,0-8.2-1.2-10.9-3.8c-2.6-2.5-3.9-5.9-3.9-10.5c0-2.4,0.1-4.7,0.2-6.9c0.2-2.2,0.5-4.6,0.9-7.2c0.5-2.5,1-4.9,1.7-7.1
		c0.7-2.1,1.6-4.1,2.7-6.1c1.1-1.9,2.3-3.5,3.6-4.8c1.3-1.2,2.9-2.2,4.7-2.9c1.7-0.7,3.7-1.1,5.8-1.1c0.3,0.1,0.7,0.4,1.5,0.9
		c1.5,1,3.3,2.1,5.2,3.4c2.2,1.4,5,2.6,8.3,3.7c3.4,1.1,6.9,1.7,10.4,1.7s7-0.6,10.4-1.7c3.4-1.1,6.2-2.3,8.3-3.7
		c2-1.3,3.7-2.4,5.2-3.3c0.7-0.5,1.2-0.7,1.5-0.9c2.1,0.1,4.1,0.4,5.8,1.1c1.9,0.7,3.5,1.7,4.7,2.9c1.4,1.3,2.6,2.9,3.6,4.8
		c1.1,2,2,4,2.7,6.1c0.7,2.2,1.3,4.5,1.7,7.1c0.5,2.6,0.8,5,0.9,7.2v0c0.2,2.2,0.2,4.6,0.2,6.9C117.1,171.8,115.9,175.3,113.2,177.8
		z"/>
</g>
</svg>
