<?xml version="1.0" encoding="utf-8"?>
<!-- Generator: Adobe Illustrator 18.0.0, SVG Export Plug-In . SVG Version: 6.00 Build 0)  -->
<!DOCTYPE svg PUBLIC "-//W3C//DTD SVG 1.1//EN" "http://www.w3.org/Graphics/SVG/1.1/DTD/svg11.dtd">
<svg version="1.1" id="Capa_1" xmlns="http://www.w3.org/2000/svg" xmlns:xlink="http://www.w3.org/1999/xlink" x="0px" y="0px"
	 viewBox="0 54 144 144" enable-background="new 0 54 144 144" xml:space="preserve">
<g>
	<g>
		<g>
			<path fill="#1C6296" d="M70.6,179.2H35.2c-5.4,0-9.9-4.4-9.9-9.9V82.6c0-5.4,4.4-9.9,9.9-9.9h60.6c5.4,0,9.9,4.4,9.9,9.9v46.6
				c0,2.7,2.2,4.9,4.9,4.9s4.9-2.2,4.9-4.9V82.6c0-10.9-8.8-19.7-19.7-19.7H35.2c-10.9,0-19.7,8.8-19.7,19.7v86.7
				c0,10.9,8.8,19.7,19.7,19.7h35.5c2.7,0,4.9-2.2,4.9-4.9S73.4,179.2,70.6,179.2z"/>
			<path fill="#1C6296" d="M90.8,104.6h-31c-2.7,0-4.9,2.2-4.9,4.9c0,2.7,2.2,4.9,4.9,4.9h31c2.7,0,4.9-2.2,4.9-4.9
				C95.8,106.8,93.6,104.6,90.8,104.6z"/>
			<path fill="#1C6296" d="M59.8,144c-2.7,0-4.9,2.2-4.9,4.9s2.2,4.9,4.9,4.9h7.4c2.7,0,4.9-2.2,4.9-4.9s-2.2-4.9-4.9-4.9H59.8z"/>
			<path fill="#1C6296" d="M90.8,84.9h-31c-2.7,0-4.9,2.2-4.9,4.9s2.2,4.9,4.9,4.9h31c2.7,0,4.9-2.2,4.9-4.9S93.6,84.9,90.8,84.9z"
				/>
			<path fill="#1C6296" d="M95.8,129.2c0-2.7-2.2-4.9-4.9-4.9h-31c-2.7,0-4.9,2.2-4.9,4.9c0,2.7,2.2,4.9,4.9,4.9h31
				C93.6,134.1,95.8,131.9,95.8,129.2z"/>
			<circle fill="#1C6296" cx="40.6" cy="129.2" r="4.9"/>
			<path fill="#1C6296" d="M124,148.5c-2.9-2.9-6.8-4.5-11-4.5c-4.2,0-7.9,1.3-10.6,3.8c-2.7-2.5-6.4-3.8-10.6-3.8
				c-4.2,0-8.1,1.6-11,4.5c-2.9,3-4.5,7.1-4.5,11.7c0,9.7,8.2,15.8,14.8,20.7c3,2.2,5.8,4.4,7.5,6.4c0.9,1.2,2.3,1.8,3.8,1.8
				c1.5,0,2.9-0.7,3.8-1.8c1.6-2,4.5-4.1,7.5-6.4c6.6-4.9,14.8-11,14.8-20.7C128.5,155.6,126.9,151.4,124,148.5z M107.8,173
				c-1.8,1.4-3.7,2.8-5.4,4.2c-1.7-1.5-3.6-2.9-5.4-4.2c-5.3-4-10.8-8.1-10.8-12.8c0-3.9,2.2-6.3,5.7-6.3c2.9,0,4.1,1.2,4.7,2.1
				c0.8,1.2,1,2.5,1,2.7c0.1,2.6,2.3,4.7,4.9,4.7s4.8-2,4.9-4.6c0-0.2,0.2-1.6,1-2.7c0.6-0.9,1.7-2.1,4.7-2.1c3.5,0,5.7,2.4,5.7,6.3
				C118.7,164.9,113.2,169,107.8,173z"/>
			<circle fill="#1C6296" cx="40.6" cy="89.8" r="4.9"/>
			<circle fill="#1C6296" cx="40.6" cy="109.5" r="4.9"/>
			<circle fill="#1C6296" cx="40.6" cy="148.9" r="4.9"/>
		</g>
	</g>
</g>
</svg>
